<?xml version="1.0" encoding="utf-8"?>
<!-- Generator: Adobe Illustrator 25.4.1, SVG Export Plug-In . SVG Version: 6.00 Build 0)  -->
<svg version="1.1" id="Layer_1" xmlns="http://www.w3.org/2000/svg" xmlns:xlink="http://www.w3.org/1999/xlink" x="0px" y="0px"
	 viewBox="0 0 566.93 566.93" style="enable-background:new 0 0 566.93 566.93;" xml:space="preserve">
<style type="text/css">
	.st0{fill:none;stroke:#004573;stroke-width:18;stroke-linecap:round;stroke-linejoin:round;stroke-miterlimit:10;}
	.st1{fill:none;stroke:#FFF203;stroke-width:18;stroke-linecap:round;stroke-linejoin:round;stroke-miterlimit:10;}
</style>
<g>
	<path class="st0" d="M161.34,396.22c0.34-83.19,0.68-166.39,8.94-247.08c39.73,47.71,74,98.05,107.62,148.6"/>
	<path class="st0" d="M383.34,399.26c-0.31-84.22-0.63-168.44-8.23-250.12c-40.98,54.11-75.64,111.56-110.23,168.91
		c-15.01,24.89-30.02,49.77-45.04,74.66"/>
	<g>
		<path class="st1" d="M268.06,403.14c21.71-36.99,57.4-105.42,77.26-143.42"/>
		<path class="st1" d="M268.06,403.14c21.71-36.99,57.4-105.42,77.26-143.42"/>
	</g>
	<path class="st1" d="M340.07,403.14c2.83-40.29,3.4-102.96,3.83-143.42"/>
</g>
</svg>
