<svg xmlns="http://www.w3.org/2000/svg" xmlns:xlink="http://www.w3.org/1999/xlink" width="470" height="468"><defs><filter id="a" width="111.8%" height="111.9%" x="-5.9%" y="-3.9%" filterUnits="objectBoundingBox"><feOffset dy="5" in="SourceAlpha" result="shadowOffsetOuter1"/><feGaussianBlur in="shadowOffsetOuter1" result="shadowBlurOuter1" stdDeviation="4"/><feColorMatrix in="shadowBlurOuter1" result="shadowMatrixOuter1" values="0 0 0 0 0 0 0 0 0 0 0 0 0 0 0 0 0 0 0.078125 0"/><feOffset dy="4" in="SourceAlpha" result="shadowOffsetOuter2"/><feGaussianBlur in="shadowOffsetOuter2" result="shadowBlurOuter2" stdDeviation="5.5"/><feColorMatrix in="shadowBlurOuter2" result="shadowMatrixOuter2" values="0 0 0 0 0 0 0 0 0 0 0 0 0 0 0 0 0 0 0.210824275 0"/><feMerge><feMergeNode in="shadowMatrixOuter1"/><feMergeNode in="shadowMatrixOuter2"/></feMerge></filter><path id="b" d="M9.635 132.808C24.782 59.782 71.388 19.109 144.085 6.822c53.74-9.081 107.5-9.196 161.15.255 74.852 13.185 119.85 56.23 134.185 130.36 11.075 57.29 11.249 115.191-.174 172.427-15.324 72.52-63.132 117.285-135.561 129.527-53.74 9.08-107.5 9.195-161.15-.255-74.852-13.186-120.05-58.38-134.384-132.509-11.64-57.668-10.52-115.935 1.484-173.82z"/></defs><g fill="none" fill-rule="evenodd"><g transform="translate(11 7)"><use fill="#000" filter="url(#a)" xlink:href="#b"/><use fill="#F46A4E" xlink:href="#b"/></g><path fill="#FFF" d="M204.282 190.693h67.779l-31.144 33.778-36.635-33.778zm-11.948 8.516v76.457h-14.36v-92.189a7.144 7.144 0 0 1 7.144-7.144H288.24c6.086 0 9.385 7.124 5.448 11.765l-45.468 49.596c-3.672 4.005-9.903 4.254-13.883.555l-42.003-39.04zM320.307 154h17.092v155.743c0 22.888-18.556 41.444-41.445 41.444H183.102v-17.092h116.21c11.595 0 20.995-9.4 20.995-20.996V154zm-37 107.308v-37.325l14.359-15.209v54.017c0 7.112-5.764 12.876-12.876 12.876h-73.011v-14.36h71.528zM135 354.332V120.041c0-7.755 6.287-14.041 14.042-14.041h189.625v16.334H151.333v232H135z"/></g></svg>